<mxfile host="app.diagrams.net" modified="2024-03-13T09:36:52.573Z" agent="Mozilla/5.0 (X11; Ubuntu; Linux x86_64; rv:123.0) Gecko/20100101 Firefox/123.0" etag="NVCl20JAtNTCidCtARXx" version="24.0.5" type="device" pages="3">
  <diagram id="3228e29e-7158-1315-38df-8450db1d8a1d" name="Banner">
    <mxGraphModel dx="2603" dy="2399" grid="1" gridSize="7" guides="1" tooltips="1" connect="1" arrows="1" fold="1" page="1" pageScale="1" pageWidth="1169" pageHeight="827" background="none" math="0" shadow="0">
      <root>
        <mxCell id="0" />
        <mxCell id="1" parent="0" />
        <mxCell id="9ZIgte_eGP6Cs3WeKvQb-21687" value="" style="rounded=0;whiteSpace=wrap;html=1;glass=1;gradientColor=#19A3FF;fillColor=#FF6666;gradientDirection=east;opacity=50;" parent="1" vertex="1">
          <mxGeometry x="-840" y="-1370" width="512" height="256" as="geometry" />
        </mxCell>
        <mxCell id="9ZIgte_eGP6Cs3WeKvQb-21759" value="" style="ellipse;shape=doubleEllipse;whiteSpace=wrap;html=1;gradientColor=#FFFFFF;gradientDirection=radial;fillColor=#000000;opacity=50;" parent="1" vertex="1">
          <mxGeometry x="-610" y="-1161" width="32" height="32" as="geometry" />
        </mxCell>
        <mxCell id="9ZIgte_eGP6Cs3WeKvQb-21761" value="" style="triangle;whiteSpace=wrap;html=1;rotation=-90;gradientColor=default;gradientDirection=west;fillColor=default;opacity=60;" parent="1" vertex="1">
          <mxGeometry x="-626" y="-1193" width="64" height="32" as="geometry" />
        </mxCell>
        <mxCell id="9ZIgte_eGP6Cs3WeKvQb-21762" value="" style="ellipse;shape=doubleEllipse;whiteSpace=wrap;html=1;gradientColor=#FFFFFF;gradientDirection=radial;fillColor=#000000;opacity=50;" parent="1" vertex="1">
          <mxGeometry x="-516" y="-1275" width="32" height="32" as="geometry" />
        </mxCell>
        <mxCell id="9ZIgte_eGP6Cs3WeKvQb-21764" value="" style="triangle;whiteSpace=wrap;html=1;rotation=-90;gradientColor=default;gradientDirection=west;fillColor=default;opacity=60;" parent="1" vertex="1">
          <mxGeometry x="-532" y="-1307" width="64" height="32" as="geometry" />
        </mxCell>
        <mxCell id="9ZIgte_eGP6Cs3WeKvQb-21765" value="" style="ellipse;shape=doubleEllipse;whiteSpace=wrap;html=1;gradientColor=#FFFFFF;gradientDirection=radial;fillColor=#000000;opacity=50;" parent="1" vertex="1">
          <mxGeometry x="-711" y="-1243" width="32" height="32" as="geometry" />
        </mxCell>
        <mxCell id="9ZIgte_eGP6Cs3WeKvQb-21767" value="" style="triangle;whiteSpace=wrap;html=1;rotation=-90;gradientColor=default;gradientDirection=west;fillColor=default;opacity=60;" parent="1" vertex="1">
          <mxGeometry x="-725" y="-1275" width="60" height="32" as="geometry" />
        </mxCell>
        <mxCell id="9ZIgte_eGP6Cs3WeKvQb-21774" value="" style="verticalAlign=top;verticalLabelPosition=bottom;labelPosition=center;align=center;html=1;outlineConnect=0;gradientDirection=north;strokeWidth=2;shape=mxgraph.networks.radio_tower;" parent="1" vertex="1">
          <mxGeometry x="-840" y="-1370" width="32" height="48" as="geometry" />
        </mxCell>
        <mxCell id="9ZIgte_eGP6Cs3WeKvQb-21777" value="" style="verticalAlign=top;verticalLabelPosition=bottom;labelPosition=center;align=center;html=1;outlineConnect=0;gradientDirection=north;strokeWidth=2;shape=mxgraph.networks.radio_tower;" parent="1" vertex="1">
          <mxGeometry x="-840" y="-1161" width="32" height="48" as="geometry" />
        </mxCell>
        <mxCell id="9ZIgte_eGP6Cs3WeKvQb-21778" value="" style="verticalAlign=top;verticalLabelPosition=bottom;labelPosition=center;align=center;html=1;outlineConnect=0;gradientDirection=north;strokeWidth=2;shape=mxgraph.networks.radio_tower;" parent="1" vertex="1">
          <mxGeometry x="-360" y="-1162" width="32" height="48" as="geometry" />
        </mxCell>
        <mxCell id="9ZIgte_eGP6Cs3WeKvQb-21782" value="" style="verticalAlign=top;verticalLabelPosition=bottom;labelPosition=center;align=center;html=1;outlineConnect=0;gradientDirection=north;strokeWidth=2;shape=mxgraph.networks.comm_link;fillColor=#FFCD28;strokeColor=none;gradientColor=none;rotation=80;" parent="1" vertex="1">
          <mxGeometry x="-601" y="-1377" width="14" height="128" as="geometry" />
        </mxCell>
        <mxCell id="9ZIgte_eGP6Cs3WeKvQb-21785" value="" style="verticalAlign=top;verticalLabelPosition=bottom;labelPosition=center;align=center;html=1;outlineConnect=0;gradientDirection=north;strokeWidth=2;shape=mxgraph.networks.radio_tower;" parent="1" vertex="1">
          <mxGeometry x="-360" y="-1370" width="32" height="48" as="geometry" />
        </mxCell>
        <mxCell id="9ZIgte_eGP6Cs3WeKvQb-21791" value="" style="verticalAlign=top;verticalLabelPosition=bottom;labelPosition=center;align=center;html=1;outlineConnect=0;gradientDirection=north;strokeWidth=2;shape=mxgraph.networks.comm_link;fillColor=#FFCD28;strokeColor=none;gradientColor=none;rotation=135;" parent="1" vertex="1">
          <mxGeometry x="-658" y="-1293" width="14" height="82" as="geometry" />
        </mxCell>
        <mxCell id="9ZIgte_eGP6Cs3WeKvQb-21793" value="" style="verticalAlign=top;verticalLabelPosition=bottom;labelPosition=center;align=center;html=1;outlineConnect=0;gradientDirection=north;strokeWidth=2;shape=mxgraph.networks.comm_link;fillColor=#FFCD28;strokeColor=none;gradientColor=none;rotation=40;" parent="1" vertex="1">
          <mxGeometry x="-557.5" y="-1314" width="14" height="96" as="geometry" />
        </mxCell>
        <mxCell id="9ZIgte_eGP6Cs3WeKvQb-21796" value="" style="verticalAlign=top;verticalLabelPosition=bottom;labelPosition=center;align=center;html=1;outlineConnect=0;gradientDirection=north;strokeWidth=2;shape=mxgraph.networks.comm_link;fillColor=#19A3FF;strokeColor=none;rotation=90;" parent="1" vertex="1">
          <mxGeometry x="-587.62" y="-1563" width="6" height="405" as="geometry" />
        </mxCell>
        <mxCell id="9ZIgte_eGP6Cs3WeKvQb-21797" value="" style="verticalAlign=top;verticalLabelPosition=bottom;labelPosition=center;align=center;html=1;outlineConnect=0;gradientDirection=north;strokeWidth=2;shape=mxgraph.networks.comm_link;fillColor=#19A3FF;strokeColor=none;rotation=90;" parent="1" vertex="1">
          <mxGeometry x="-585.87" y="-1323.12" width="4.25" height="405" as="geometry" />
        </mxCell>
        <mxCell id="9ZIgte_eGP6Cs3WeKvQb-21798" value="" style="verticalAlign=top;verticalLabelPosition=bottom;labelPosition=center;align=center;html=1;outlineConnect=0;gradientDirection=north;strokeWidth=2;shape=mxgraph.networks.comm_link;fillColor=#19A3FF;strokeColor=none;rotation=0;" parent="1" vertex="1">
          <mxGeometry x="-831.5" y="-1316.75" width="11.5" height="149.5" as="geometry" />
        </mxCell>
        <mxCell id="9ZIgte_eGP6Cs3WeKvQb-21799" value="" style="verticalAlign=top;verticalLabelPosition=bottom;labelPosition=center;align=center;html=1;outlineConnect=0;gradientDirection=north;strokeWidth=2;shape=mxgraph.networks.comm_link;fillColor=#19A3FF;strokeColor=none;rotation=0;" parent="1" vertex="1">
          <mxGeometry x="-349.75" y="-1317" width="11.5" height="129" as="geometry" />
        </mxCell>
        <mxCell id="3K2JJOvRlvcDOHNstVGo-13" value="" style="html=1;whiteSpace=wrap;shape=isoCube2;backgroundOutline=1;isoAngle=15;gradientDirection=south;" parent="1" vertex="1">
          <mxGeometry x="-711" y="-1301" width="32" height="20" as="geometry" />
        </mxCell>
        <mxCell id="3K2JJOvRlvcDOHNstVGo-14" value="" style="html=1;whiteSpace=wrap;shape=isoCube2;backgroundOutline=1;isoAngle=15;gradientDirection=south;" parent="1" vertex="1">
          <mxGeometry x="-610" y="-1218" width="32" height="20" as="geometry" />
        </mxCell>
        <mxCell id="3K2JJOvRlvcDOHNstVGo-15" value="" style="html=1;whiteSpace=wrap;shape=isoCube2;backgroundOutline=1;isoAngle=15;gradientDirection=south;" parent="1" vertex="1">
          <mxGeometry x="-516" y="-1334" width="32" height="20" as="geometry" />
        </mxCell>
      </root>
    </mxGraphModel>
  </diagram>
  <diagram id="abylQsp0k-ore7WknI2Y" name="Development Layer">
    <mxGraphModel dx="690" dy="3442" grid="1" gridSize="10" guides="1" tooltips="1" connect="1" arrows="1" fold="1" page="1" pageScale="1" pageWidth="850" pageHeight="1100" math="0" shadow="0">
      <root>
        <mxCell id="0" />
        <mxCell id="1" parent="0" />
        <mxCell id="Kj5KFgZ0lVW4899rqYF9-1" value="" style="rounded=1;whiteSpace=wrap;html=1;fillColor=#b0e3e6;strokeColor=#0e8088;" parent="1" vertex="1">
          <mxGeometry x="2157" y="-1700" width="431" height="562.12" as="geometry" />
        </mxCell>
        <mxCell id="Kj5KFgZ0lVW4899rqYF9-2" value="Crazyflie" style="rounded=1;whiteSpace=wrap;html=1;" parent="1" vertex="1">
          <mxGeometry x="2244.5" y="-1412" width="256" height="128" as="geometry" />
        </mxCell>
        <mxCell id="Kj5KFgZ0lVW4899rqYF9-3" value="STM32" style="rounded=0;whiteSpace=wrap;html=1;fillColor=#1ba1e2;fontColor=#ffffff;strokeColor=#006EAF;" parent="1" vertex="1">
          <mxGeometry x="2286.5" y="-1372" width="48" height="48" as="geometry" />
        </mxCell>
        <mxCell id="Kj5KFgZ0lVW4899rqYF9-4" value="NRF51" style="rounded=0;whiteSpace=wrap;html=1;fillColor=#1ba1e2;fontColor=#ffffff;strokeColor=#006EAF;" parent="1" vertex="1">
          <mxGeometry x="2426.5" y="-1372" width="48" height="48" as="geometry" />
        </mxCell>
        <mxCell id="Kj5KFgZ0lVW4899rqYF9-5" value="AI Deck" style="rounded=1;whiteSpace=wrap;html=1;" parent="1" vertex="1">
          <mxGeometry x="2239.5" y="-1649" width="266" height="171" as="geometry" />
        </mxCell>
        <mxCell id="Kj5KFgZ0lVW4899rqYF9-6" value="&lt;font style=&quot;font-size: 12px;&quot;&gt;Loco&lt;/font&gt;" style="rounded=1;whiteSpace=wrap;html=1;" parent="1" vertex="1">
          <mxGeometry x="2243" y="-1272" width="259" height="32.38" as="geometry" />
        </mxCell>
        <mxCell id="Kj5KFgZ0lVW4899rqYF9-7" value="GAP8" style="rounded=0;whiteSpace=wrap;html=1;fillColor=#1ba1e2;fontColor=#ffffff;strokeColor=#006EAF;" parent="1" vertex="1">
          <mxGeometry x="2286.5" y="-1581" width="48" height="48" as="geometry" />
        </mxCell>
        <mxCell id="Kj5KFgZ0lVW4899rqYF9-8" value="NINA" style="rounded=0;whiteSpace=wrap;html=1;fillColor=#1ba1e2;fontColor=#ffffff;strokeColor=#006EAF;" parent="1" vertex="1">
          <mxGeometry x="2426.5" y="-1582" width="48" height="48" as="geometry" />
        </mxCell>
        <mxCell id="Kj5KFgZ0lVW4899rqYF9-9" value="" style="rounded=1;whiteSpace=wrap;html=1;fillColor=#b0e3e6;strokeColor=#0e8088;" parent="1" vertex="1">
          <mxGeometry x="2892" y="-1590" width="938" height="890" as="geometry" />
        </mxCell>
        <mxCell id="Kj5KFgZ0lVW4899rqYF9-11" style="edgeStyle=orthogonalEdgeStyle;rounded=0;orthogonalLoop=1;jettySize=auto;html=1;entryX=1;entryY=0.5;entryDx=0;entryDy=0;fillColor=#008a00;strokeColor=#000000;strokeWidth=3;flowAnimation=1;opacity=25;" parent="1" source="Kj5KFgZ0lVW4899rqYF9-12" target="Kj5KFgZ0lVW4899rqYF9-4" edge="1">
          <mxGeometry relative="1" as="geometry">
            <Array as="points">
              <mxPoint x="2950" y="-993" />
              <mxPoint x="2650" y="-993" />
              <mxPoint x="2650" y="-1348" />
            </Array>
          </mxGeometry>
        </mxCell>
        <mxCell id="IKYmzdzaYqqCpakKSA4x-10" style="edgeStyle=orthogonalEdgeStyle;rounded=0;orthogonalLoop=1;jettySize=auto;html=1;strokeColor=#005700;align=center;verticalAlign=middle;fontFamily=Helvetica;fontSize=11;fontColor=default;labelBackgroundColor=default;endArrow=classic;flowAnimation=1;strokeWidth=3;fillColor=#008a00;entryX=1.016;entryY=0.101;entryDx=0;entryDy=0;entryPerimeter=0;exitX=0.017;exitY=0.435;exitDx=0;exitDy=0;exitPerimeter=0;" parent="1" source="Kj5KFgZ0lVW4899rqYF9-12" target="Kj5KFgZ0lVW4899rqYF9-4" edge="1">
          <mxGeometry relative="1" as="geometry">
            <mxPoint x="2870" y="-910" as="sourcePoint" />
            <mxPoint x="2611" y="-1367.88" as="targetPoint" />
            <Array as="points">
              <mxPoint x="2791" y="-910" />
              <mxPoint x="2791" y="-1367" />
            </Array>
          </mxGeometry>
        </mxCell>
        <mxCell id="Kj5KFgZ0lVW4899rqYF9-12" value="" style="html=1;strokeWidth=1;shadow=0;dashed=0;shape=mxgraph.ios7.misc.bluetooth;fillColor=#007AFF;strokeColor=none;buttonText=;strokeColor2=#222222;fontColor=#222222;fontSize=8;verticalLabelPosition=bottom;verticalAlign=top;align=center;sketch=0;" parent="1" vertex="1">
          <mxGeometry x="2920" y="-950.5" width="81" height="92.62" as="geometry" />
        </mxCell>
        <mxCell id="Kj5KFgZ0lVW4899rqYF9-13" value="" style="html=1;verticalLabelPosition=bottom;align=center;labelBackgroundColor=#ffffff;verticalAlign=top;strokeWidth=2;strokeColor=#0080F0;shadow=0;dashed=0;shape=mxgraph.ios7.icons.wifi;pointerEvents=1;aspect=fixed;" parent="1" vertex="1">
          <mxGeometry x="2965" y="-1432.6800000000003" width="64" height="53.92" as="geometry" />
        </mxCell>
        <mxCell id="Kj5KFgZ0lVW4899rqYF9-14" value="Himax&lt;br&gt;320×320" style="rounded=0;whiteSpace=wrap;html=1;fillColor=#1ba1e2;fontColor=#ffffff;strokeColor=#006EAF;" parent="1" vertex="1">
          <mxGeometry x="2356.5" y="-1679" width="48" height="48" as="geometry" />
        </mxCell>
        <mxCell id="Kj5KFgZ0lVW4899rqYF9-17" value="Business&lt;br&gt;Logic" style="text;html=1;align=center;verticalAlign=middle;resizable=0;points=[];autosize=1;strokeColor=none;fillColor=none;" parent="1" vertex="1">
          <mxGeometry x="3570.5" y="-1066.0700000000002" width="70" height="40" as="geometry" />
        </mxCell>
        <mxCell id="Kj5KFgZ0lVW4899rqYF9-18" value="" style="rounded=0;whiteSpace=wrap;html=1;" parent="1" vertex="1">
          <mxGeometry x="3030" y="-1052.0700000000002" width="289" height="144.88" as="geometry" />
        </mxCell>
        <mxCell id="Kj5KFgZ0lVW4899rqYF9-19" value="&lt;div&gt;gap8.bin&lt;/div&gt;" style="ellipse;whiteSpace=wrap;html=1;" parent="1" vertex="1">
          <mxGeometry x="3050" y="-1005.3800000000001" width="63" height="31" as="geometry" />
        </mxCell>
        <mxCell id="Kj5KFgZ0lVW4899rqYF9-21" value="" style="rounded=0;whiteSpace=wrap;html=1;" parent="1" vertex="1">
          <mxGeometry x="3026.5" y="-857.88" width="296" height="144.88" as="geometry" />
        </mxCell>
        <mxCell id="Kj5KFgZ0lVW4899rqYF9-22" value="" style="rounded=0;whiteSpace=wrap;html=1;" parent="1" vertex="1">
          <mxGeometry x="3441" y="-1031.19" width="329" height="222" as="geometry" />
        </mxCell>
        <mxCell id="Kj5KFgZ0lVW4899rqYF9-23" value="main.c" style="ellipse;whiteSpace=wrap;html=1;" parent="1" vertex="1">
          <mxGeometry x="3235" y="-963.0700000000006" width="63" height="31" as="geometry" />
        </mxCell>
        <mxCell id="AtxhRvOjIkDFr8ttRG78-26" style="edgeStyle=orthogonalEdgeStyle;rounded=0;orthogonalLoop=1;jettySize=auto;html=1;exitX=0.5;exitY=0;exitDx=0;exitDy=0;entryX=0.5;entryY=1;entryDx=0;entryDy=0;strokeColor=#000000;align=center;verticalAlign=middle;fontFamily=Helvetica;fontSize=11;fontColor=default;labelBackgroundColor=default;endArrow=classic;flowAnimation=1;opacity=25;strokeWidth=3;arcSize=37;fillColor=#008a00;" parent="1" source="Kj5KFgZ0lVW4899rqYF9-25" target="Kj5KFgZ0lVW4899rqYF9-26" edge="1">
          <mxGeometry relative="1" as="geometry" />
        </mxCell>
        <mxCell id="Kj5KFgZ0lVW4899rqYF9-25" value="&lt;div&gt;stm32_lib.c&lt;/div&gt;" style="ellipse;whiteSpace=wrap;html=1;" parent="1" vertex="1">
          <mxGeometry x="3239" y="-780.07" width="63" height="31" as="geometry" />
        </mxCell>
        <mxCell id="Kj5KFgZ0lVW4899rqYF9-26" value="main.c" style="ellipse;whiteSpace=wrap;html=1;" parent="1" vertex="1">
          <mxGeometry x="3239" y="-840.0700000000002" width="63" height="31" as="geometry" />
        </mxCell>
        <mxCell id="AtxhRvOjIkDFr8ttRG78-24" style="edgeStyle=orthogonalEdgeStyle;rounded=0;orthogonalLoop=1;jettySize=auto;html=1;exitX=0.5;exitY=1;exitDx=0;exitDy=0;strokeColor=#000000;align=center;verticalAlign=middle;fontFamily=Helvetica;fontSize=11;fontColor=default;labelBackgroundColor=default;endArrow=classic;flowAnimation=1;opacity=25;strokeWidth=3;arcSize=37;fillColor=#008a00;" parent="1" source="Kj5KFgZ0lVW4899rqYF9-28" target="Kj5KFgZ0lVW4899rqYF9-23" edge="1">
          <mxGeometry relative="1" as="geometry" />
        </mxCell>
        <mxCell id="Kj5KFgZ0lVW4899rqYF9-28" value="&lt;div&gt;gap8_lib.c&lt;/div&gt;" style="ellipse;whiteSpace=wrap;html=1;" parent="1" vertex="1">
          <mxGeometry x="3235" y="-1040.0700000000002" width="63" height="31" as="geometry" />
        </mxCell>
        <mxCell id="Iznl7x10-VODPa0N9Z1I-1" style="edgeStyle=orthogonalEdgeStyle;rounded=0;orthogonalLoop=1;jettySize=auto;html=1;exitX=0.5;exitY=1;exitDx=0;exitDy=0;exitPerimeter=0;entryX=0.5;entryY=1;entryDx=0;entryDy=0;strokeColor=#000000;align=center;verticalAlign=middle;fontFamily=Helvetica;fontSize=11;fontColor=default;labelBackgroundColor=default;endArrow=classic;flowAnimation=1;opacity=25;strokeWidth=3;arcSize=37;fillColor=#008a00;" parent="1" source="Kj5KFgZ0lVW4899rqYF9-30" target="Kj5KFgZ0lVW4899rqYF9-20" edge="1">
          <mxGeometry relative="1" as="geometry">
            <Array as="points">
              <mxPoint x="3168" y="-760" />
              <mxPoint x="3082" y="-760" />
            </Array>
          </mxGeometry>
        </mxCell>
        <mxCell id="Kj5KFgZ0lVW4899rqYF9-30" value="BUILD&lt;br&gt;stm32" style="shape=cylinder3;whiteSpace=wrap;html=1;boundedLbl=1;backgroundOutline=1;size=15;" parent="1" vertex="1">
          <mxGeometry x="3137" y="-821.3800000000001" width="57" height="75.31" as="geometry" />
        </mxCell>
        <mxCell id="Kj5KFgZ0lVW4899rqYF9-31" style="edgeStyle=orthogonalEdgeStyle;rounded=0;orthogonalLoop=1;jettySize=auto;html=1;exitX=0.5;exitY=1;exitDx=0;exitDy=0;exitPerimeter=0;entryX=0.5;entryY=1;entryDx=0;entryDy=0;flowAnimation=1;opacity=25;strokeColor=#000000;strokeWidth=3;align=center;verticalAlign=middle;arcSize=37;fontFamily=Helvetica;fontSize=11;fontColor=default;labelBackgroundColor=default;endArrow=classic;fillColor=#008a00;" parent="1" source="Kj5KFgZ0lVW4899rqYF9-32" target="Kj5KFgZ0lVW4899rqYF9-19" edge="1">
          <mxGeometry relative="1" as="geometry">
            <Array as="points">
              <mxPoint x="3162" y="-950" />
              <mxPoint x="3082" y="-950" />
            </Array>
          </mxGeometry>
        </mxCell>
        <mxCell id="Kj5KFgZ0lVW4899rqYF9-32" value="BUILD&lt;br&gt;gap8" style="shape=cylinder3;whiteSpace=wrap;html=1;boundedLbl=1;backgroundOutline=1;size=15;" parent="1" vertex="1">
          <mxGeometry x="3133" y="-1023.0700000000002" width="57" height="84" as="geometry" />
        </mxCell>
        <mxCell id="XlngGC2TMZ_8KCzDN6Xe-7" style="edgeStyle=orthogonalEdgeStyle;rounded=0;orthogonalLoop=1;jettySize=auto;html=1;exitX=1;exitY=0.5;exitDx=0;exitDy=0;entryX=0.5;entryY=1;entryDx=0;entryDy=0;strokeColor=default;align=center;verticalAlign=middle;fontFamily=Helvetica;fontSize=11;fontColor=default;labelBackgroundColor=default;endArrow=classic;flowAnimation=1;strokeWidth=3;" parent="1" source="Kj5KFgZ0lVW4899rqYF9-34" target="IKYmzdzaYqqCpakKSA4x-18" edge="1">
          <mxGeometry relative="1" as="geometry" />
        </mxCell>
        <mxCell id="Iznl7x10-VODPa0N9Z1I-5" style="edgeStyle=orthogonalEdgeStyle;rounded=0;orthogonalLoop=1;jettySize=auto;html=1;entryX=1;entryY=0.5;entryDx=0;entryDy=0;strokeColor=default;align=center;verticalAlign=middle;fontFamily=Helvetica;fontSize=11;fontColor=default;labelBackgroundColor=default;endArrow=classic;flowAnimation=1;strokeWidth=3;" parent="1" source="Kj5KFgZ0lVW4899rqYF9-34" target="Kj5KFgZ0lVW4899rqYF9-23" edge="1">
          <mxGeometry relative="1" as="geometry" />
        </mxCell>
        <mxCell id="Kj5KFgZ0lVW4899rqYF9-34" value="&lt;div&gt;gap8.c&lt;/div&gt;" style="ellipse;whiteSpace=wrap;html=1;" parent="1" vertex="1">
          <mxGeometry x="3470.5" y="-997.19" width="112" height="31" as="geometry" />
        </mxCell>
        <mxCell id="AtxhRvOjIkDFr8ttRG78-20" style="edgeStyle=orthogonalEdgeStyle;rounded=0;orthogonalLoop=1;jettySize=auto;html=1;exitX=0.5;exitY=0;exitDx=0;exitDy=0;entryX=0.5;entryY=1;entryDx=0;entryDy=0;strokeColor=default;align=center;verticalAlign=middle;fontFamily=Helvetica;fontSize=11;fontColor=default;labelBackgroundColor=default;endArrow=classic;flowAnimation=1;strokeWidth=3;" parent="1" source="Kj5KFgZ0lVW4899rqYF9-39" target="Kj5KFgZ0lVW4899rqYF9-34" edge="1">
          <mxGeometry relative="1" as="geometry" />
        </mxCell>
        <mxCell id="AtxhRvOjIkDFr8ttRG78-21" style="edgeStyle=orthogonalEdgeStyle;rounded=0;orthogonalLoop=1;jettySize=auto;html=1;entryX=0.5;entryY=0;entryDx=0;entryDy=0;strokeColor=default;align=center;verticalAlign=middle;fontFamily=Helvetica;fontSize=11;fontColor=default;labelBackgroundColor=default;endArrow=classic;flowAnimation=1;strokeWidth=3;" parent="1" source="Kj5KFgZ0lVW4899rqYF9-39" target="Kj5KFgZ0lVW4899rqYF9-42" edge="1">
          <mxGeometry relative="1" as="geometry" />
        </mxCell>
        <mxCell id="Kj5KFgZ0lVW4899rqYF9-39" value="&lt;div&gt;CPX_COMM.c&lt;/div&gt;" style="ellipse;whiteSpace=wrap;html=1;" parent="1" vertex="1">
          <mxGeometry x="3470.5" y="-938.19" width="112" height="31" as="geometry" />
        </mxCell>
        <mxCell id="AtxhRvOjIkDFr8ttRG78-19" style="edgeStyle=orthogonalEdgeStyle;rounded=0;orthogonalLoop=1;jettySize=auto;html=1;entryX=1;entryY=0.5;entryDx=0;entryDy=0;strokeColor=default;align=center;verticalAlign=middle;fontFamily=Helvetica;fontSize=11;fontColor=default;labelBackgroundColor=default;endArrow=classic;flowAnimation=1;strokeWidth=3;" parent="1" source="Kj5KFgZ0lVW4899rqYF9-41" target="Kj5KFgZ0lVW4899rqYF9-42" edge="1">
          <mxGeometry relative="1" as="geometry" />
        </mxCell>
        <mxCell id="Kj5KFgZ0lVW4899rqYF9-41" value="CFTP_COMM.c" style="ellipse;whiteSpace=wrap;html=1;" parent="1" vertex="1">
          <mxGeometry x="3638.5" y="-849.38" width="112" height="31" as="geometry" />
        </mxCell>
        <mxCell id="XlngGC2TMZ_8KCzDN6Xe-8" style="edgeStyle=orthogonalEdgeStyle;rounded=0;orthogonalLoop=1;jettySize=auto;html=1;exitX=1;exitY=0;exitDx=0;exitDy=0;entryX=0.75;entryY=1;entryDx=0;entryDy=0;strokeColor=default;align=center;verticalAlign=middle;fontFamily=Helvetica;fontSize=11;fontColor=default;labelBackgroundColor=default;endArrow=classic;flowAnimation=1;strokeWidth=3;" parent="1" source="Kj5KFgZ0lVW4899rqYF9-42" target="IKYmzdzaYqqCpakKSA4x-18" edge="1">
          <mxGeometry relative="1" as="geometry">
            <Array as="points">
              <mxPoint x="3567" y="-890" />
              <mxPoint x="3710" y="-890" />
            </Array>
          </mxGeometry>
        </mxCell>
        <mxCell id="Iznl7x10-VODPa0N9Z1I-4" style="edgeStyle=orthogonalEdgeStyle;rounded=0;orthogonalLoop=1;jettySize=auto;html=1;entryX=1;entryY=0.5;entryDx=0;entryDy=0;strokeColor=default;align=center;verticalAlign=middle;fontFamily=Helvetica;fontSize=11;fontColor=default;labelBackgroundColor=default;endArrow=classic;flowAnimation=1;strokeWidth=3;" parent="1" source="Kj5KFgZ0lVW4899rqYF9-42" target="Kj5KFgZ0lVW4899rqYF9-26" edge="1">
          <mxGeometry relative="1" as="geometry" />
        </mxCell>
        <mxCell id="Kj5KFgZ0lVW4899rqYF9-42" value="stm32.c" style="ellipse;whiteSpace=wrap;html=1;" parent="1" vertex="1">
          <mxGeometry x="3470.5" y="-849.38" width="112" height="31" as="geometry" />
        </mxCell>
        <mxCell id="Kj5KFgZ0lVW4899rqYF9-47" style="edgeStyle=orthogonalEdgeStyle;rounded=0;orthogonalLoop=1;jettySize=auto;html=1;flowAnimation=1;exitX=0;exitY=0.5;exitDx=0;exitDy=0;opacity=25;strokeColor=#000000;strokeWidth=3;align=center;verticalAlign=middle;arcSize=37;fontFamily=Helvetica;fontSize=11;fontColor=default;labelBackgroundColor=default;endArrow=classic;fillColor=#008a00;" parent="1" source="Kj5KFgZ0lVW4899rqYF9-19" edge="1">
          <mxGeometry relative="1" as="geometry">
            <mxPoint x="3010" y="-1011" as="sourcePoint" />
            <mxPoint x="2980" y="-950" as="targetPoint" />
            <Array as="points">
              <mxPoint x="2980" y="-990" />
              <mxPoint x="2980" y="-950" />
            </Array>
          </mxGeometry>
        </mxCell>
        <mxCell id="Kj5KFgZ0lVW4899rqYF9-48" style="edgeStyle=orthogonalEdgeStyle;rounded=0;orthogonalLoop=1;jettySize=auto;html=1;exitX=0;exitY=0.5;exitDx=0;exitDy=0;flowAnimation=1;entryX=0.744;entryY=0.995;entryDx=0;entryDy=0;entryPerimeter=0;opacity=25;strokeColor=#000000;strokeWidth=3;align=center;verticalAlign=middle;arcSize=37;fontFamily=Helvetica;fontSize=11;fontColor=default;labelBackgroundColor=default;endArrow=classic;fillColor=#008a00;" parent="1" source="Kj5KFgZ0lVW4899rqYF9-20" target="Kj5KFgZ0lVW4899rqYF9-12" edge="1">
          <mxGeometry relative="1" as="geometry">
            <Array as="points">
              <mxPoint x="2980" y="-796" />
              <mxPoint x="2980" y="-820" />
            </Array>
            <mxPoint x="2860" y="-820" as="targetPoint" />
          </mxGeometry>
        </mxCell>
        <mxCell id="Kj5KFgZ0lVW4899rqYF9-49" value="GAP8" style="text;html=1;align=center;verticalAlign=middle;resizable=0;points=[];autosize=1;strokeColor=none;fillColor=none;" parent="1" vertex="1">
          <mxGeometry x="3147.5" y="-1087.0700000000002" width="49" height="35" as="geometry" />
        </mxCell>
        <mxCell id="Kj5KFgZ0lVW4899rqYF9-50" value="STM32" style="text;html=1;align=center;verticalAlign=middle;resizable=0;points=[];autosize=1;strokeColor=none;fillColor=none;" parent="1" vertex="1">
          <mxGeometry x="3140.5" y="-892.8800000000001" width="56" height="35" as="geometry" />
        </mxCell>
        <mxCell id="Kj5KFgZ0lVW4899rqYF9-53" value="Patch firmware" style="text;html=1;align=center;verticalAlign=middle;resizable=0;points=[];autosize=1;strokeColor=none;fillColor=none;" parent="1" vertex="1">
          <mxGeometry x="2641" y="-1031.88" width="98" height="35" as="geometry" />
        </mxCell>
        <mxCell id="Kj5KFgZ0lVW4899rqYF9-54" value="Flow V2" style="rounded=1;whiteSpace=wrap;html=1;" parent="1" vertex="1">
          <mxGeometry x="2243" y="-1228.38" width="259" height="32.38" as="geometry" />
        </mxCell>
        <mxCell id="Kj5KFgZ0lVW4899rqYF9-55" value="" style="ellipse;shape=cloud;whiteSpace=wrap;html=1;opacity=35;shadow=1;textShadow=1;fillColor=#008a00;fontColor=#ffffff;strokeColor=#005700;" parent="1" vertex="1">
          <mxGeometry x="3333" y="-1091.38" width="78" height="325.5" as="geometry" />
        </mxCell>
        <mxCell id="Kj5KFgZ0lVW4899rqYF9-57" value="" style="rounded=1;whiteSpace=wrap;html=1;fillColor=#b0e3e6;strokeColor=#0e8088;" parent="1" vertex="1">
          <mxGeometry x="2157" y="-1083.88" width="431" height="562.12" as="geometry" />
        </mxCell>
        <mxCell id="Kj5KFgZ0lVW4899rqYF9-58" value="Crazyflie" style="rounded=1;whiteSpace=wrap;html=1;" parent="1" vertex="1">
          <mxGeometry x="2244.5" y="-795.8799999999999" width="256" height="128" as="geometry" />
        </mxCell>
        <mxCell id="Kj5KFgZ0lVW4899rqYF9-59" value="STM32" style="rounded=0;whiteSpace=wrap;html=1;fillColor=#1ba1e2;fontColor=#ffffff;strokeColor=#006EAF;" parent="1" vertex="1">
          <mxGeometry x="2286.5" y="-755.8799999999999" width="48" height="48" as="geometry" />
        </mxCell>
        <mxCell id="Kj5KFgZ0lVW4899rqYF9-60" value="NRF51" style="rounded=0;whiteSpace=wrap;html=1;fillColor=#1ba1e2;fontColor=#ffffff;strokeColor=#006EAF;" parent="1" vertex="1">
          <mxGeometry x="2426.5" y="-755.8799999999999" width="48" height="48" as="geometry" />
        </mxCell>
        <mxCell id="Kj5KFgZ0lVW4899rqYF9-61" value="AI Deck" style="rounded=1;whiteSpace=wrap;html=1;" parent="1" vertex="1">
          <mxGeometry x="2239.5" y="-1032.88" width="266" height="171" as="geometry" />
        </mxCell>
        <mxCell id="Kj5KFgZ0lVW4899rqYF9-62" value="&lt;font style=&quot;font-size: 12px;&quot;&gt;Loco&lt;/font&gt;" style="rounded=1;whiteSpace=wrap;html=1;" parent="1" vertex="1">
          <mxGeometry x="2243" y="-655.8799999999999" width="259" height="32.38" as="geometry" />
        </mxCell>
        <mxCell id="Kj5KFgZ0lVW4899rqYF9-75" style="edgeStyle=orthogonalEdgeStyle;rounded=0;orthogonalLoop=1;jettySize=auto;html=1;exitX=0.75;exitY=1;exitDx=0;exitDy=0;entryX=0.75;entryY=0;entryDx=0;entryDy=0;strokeWidth=3;dashed=1;dashPattern=1 1;fillColor=#fa6800;strokeColor=#C73500;opacity=50;flowAnimation=1;" parent="1" source="Kj5KFgZ0lVW4899rqYF9-63" target="Kj5KFgZ0lVW4899rqYF9-59" edge="1">
          <mxGeometry relative="1" as="geometry" />
        </mxCell>
        <mxCell id="Kj5KFgZ0lVW4899rqYF9-63" value="GAP8" style="rounded=0;whiteSpace=wrap;html=1;fillColor=#1ba1e2;fontColor=#ffffff;strokeColor=#006EAF;" parent="1" vertex="1">
          <mxGeometry x="2286.5" y="-964.8800000000001" width="48" height="48" as="geometry" />
        </mxCell>
        <mxCell id="Kj5KFgZ0lVW4899rqYF9-64" value="NINA" style="rounded=0;whiteSpace=wrap;html=1;fillColor=#1ba1e2;fontColor=#ffffff;strokeColor=#006EAF;" parent="1" vertex="1">
          <mxGeometry x="2426.5" y="-965.8800000000001" width="48" height="48" as="geometry" />
        </mxCell>
        <mxCell id="Kj5KFgZ0lVW4899rqYF9-65" value="Himax&lt;br&gt;320×320" style="rounded=0;whiteSpace=wrap;html=1;fillColor=#1ba1e2;fontColor=#ffffff;strokeColor=#006EAF;" parent="1" vertex="1">
          <mxGeometry x="2356.5" y="-1062.88" width="48" height="48" as="geometry" />
        </mxCell>
        <mxCell id="Kj5KFgZ0lVW4899rqYF9-68" value="Flow V2" style="rounded=1;whiteSpace=wrap;html=1;" parent="1" vertex="1">
          <mxGeometry x="2243" y="-612.26" width="259" height="32.38" as="geometry" />
        </mxCell>
        <mxCell id="Kj5KFgZ0lVW4899rqYF9-69" style="edgeStyle=orthogonalEdgeStyle;rounded=0;orthogonalLoop=1;jettySize=auto;html=1;entryX=1;entryY=0.5;entryDx=0;entryDy=0;fillColor=#008a00;strokeColor=#000000;arcSize=37;strokeWidth=3;flowAnimation=1;opacity=25;exitX=0.369;exitY=-0.002;exitDx=0;exitDy=0;exitPerimeter=0;" parent="1" source="Kj5KFgZ0lVW4899rqYF9-12" edge="1">
          <mxGeometry relative="1" as="geometry">
            <Array as="points">
              <mxPoint x="2950" y="-990" />
              <mxPoint x="2650" y="-990" />
              <mxPoint x="2650" y="-710" />
            </Array>
            <mxPoint x="2860" y="-960" as="sourcePoint" />
            <mxPoint x="2467.25" y="-710.38" as="targetPoint" />
          </mxGeometry>
        </mxCell>
        <mxCell id="Kj5KFgZ0lVW4899rqYF9-70" style="edgeStyle=orthogonalEdgeStyle;rounded=0;orthogonalLoop=1;jettySize=auto;html=1;exitX=0.5;exitY=0;exitDx=0;exitDy=0;entryX=0.5;entryY=1;entryDx=0;entryDy=0;strokeWidth=4;fillColor=#d80073;strokeColor=#A50040;dashed=1;dashPattern=1 1;flowAnimation=1;opacity=25;" parent="1" edge="1">
          <mxGeometry relative="1" as="geometry">
            <mxPoint x="2437" y="-754.76" as="sourcePoint" />
            <mxPoint x="2437" y="-1322.88" as="targetPoint" />
          </mxGeometry>
        </mxCell>
        <mxCell id="Kj5KFgZ0lVW4899rqYF9-71" style="edgeStyle=orthogonalEdgeStyle;rounded=0;orthogonalLoop=1;jettySize=auto;html=1;exitX=0.75;exitY=1;exitDx=0;exitDy=0;entryX=0.75;entryY=0;entryDx=0;entryDy=0;strokeWidth=4;fillColor=#d80073;strokeColor=#A50040;dashed=1;dashPattern=1 1;shadow=0;textShadow=0;opacity=25;flowAnimation=1;" parent="1" source="Kj5KFgZ0lVW4899rqYF9-4" target="Kj5KFgZ0lVW4899rqYF9-60" edge="1">
          <mxGeometry relative="1" as="geometry" />
        </mxCell>
        <mxCell id="Kj5KFgZ0lVW4899rqYF9-72" value="CFTP" style="edgeLabel;html=1;align=center;verticalAlign=middle;resizable=0;points=[];" parent="Kj5KFgZ0lVW4899rqYF9-71" vertex="1" connectable="0">
          <mxGeometry x="-0.2603" y="3" relative="1" as="geometry">
            <mxPoint x="-15" y="2" as="offset" />
          </mxGeometry>
        </mxCell>
        <mxCell id="Kj5KFgZ0lVW4899rqYF9-74" style="edgeStyle=orthogonalEdgeStyle;rounded=0;orthogonalLoop=1;jettySize=auto;html=1;exitX=0.25;exitY=0;exitDx=0;exitDy=0;entryX=0.25;entryY=1;entryDx=0;entryDy=0;strokeWidth=3;dashed=1;dashPattern=1 1;fillColor=#fa6800;strokeColor=#C73500;opacity=50;flowAnimation=1;" parent="1" source="Kj5KFgZ0lVW4899rqYF9-78" target="Kj5KFgZ0lVW4899rqYF9-63" edge="1">
          <mxGeometry relative="1" as="geometry">
            <Array as="points">
              <mxPoint x="2299" y="-807.88" />
              <mxPoint x="2299" y="-807.88" />
            </Array>
          </mxGeometry>
        </mxCell>
        <mxCell id="Kj5KFgZ0lVW4899rqYF9-80" style="edgeStyle=orthogonalEdgeStyle;rounded=0;orthogonalLoop=1;jettySize=auto;html=1;exitX=0.75;exitY=1;exitDx=0;exitDy=0;entryX=0.75;entryY=0;entryDx=0;entryDy=0;strokeWidth=3;dashed=1;dashPattern=1 1;fillColor=#fa6800;strokeColor=#C73500;opacity=50;flowAnimation=1;" parent="1" edge="1">
          <mxGeometry relative="1" as="geometry">
            <mxPoint x="2323" y="-1533" as="sourcePoint" />
            <mxPoint x="2323" y="-1372" as="targetPoint" />
          </mxGeometry>
        </mxCell>
        <mxCell id="Kj5KFgZ0lVW4899rqYF9-81" style="edgeStyle=orthogonalEdgeStyle;rounded=0;orthogonalLoop=1;jettySize=auto;html=1;exitX=0.25;exitY=0;exitDx=0;exitDy=0;entryX=0.25;entryY=1;entryDx=0;entryDy=0;strokeWidth=3;dashed=1;dashPattern=1 1;fillColor=#fa6800;strokeColor=#C73500;opacity=50;flowAnimation=1;" parent="1" edge="1">
          <mxGeometry relative="1" as="geometry">
            <mxPoint x="2299" y="-1372" as="sourcePoint" />
            <mxPoint x="2299" y="-1533" as="targetPoint" />
            <Array as="points">
              <mxPoint x="2299" y="-1424" />
              <mxPoint x="2299" y="-1424" />
            </Array>
          </mxGeometry>
        </mxCell>
        <mxCell id="Kj5KFgZ0lVW4899rqYF9-82" value="&lt;div&gt;CPX&lt;/div&gt;" style="text;html=1;align=center;verticalAlign=middle;resizable=0;points=[];autosize=1;strokeColor=none;fillColor=none;" parent="1" vertex="1">
          <mxGeometry x="2284.5" y="-1459.19" width="50" height="30" as="geometry" />
        </mxCell>
        <mxCell id="Kj5KFgZ0lVW4899rqYF9-83" value="" style="edgeStyle=orthogonalEdgeStyle;rounded=0;orthogonalLoop=1;jettySize=auto;html=1;exitX=0.25;exitY=0;exitDx=0;exitDy=0;entryX=0.25;entryY=1;entryDx=0;entryDy=0;strokeWidth=3;dashed=1;dashPattern=1 1;fillColor=#fa6800;strokeColor=#C73500;opacity=50;flowAnimation=1;" parent="1" source="Kj5KFgZ0lVW4899rqYF9-59" target="Kj5KFgZ0lVW4899rqYF9-78" edge="1">
          <mxGeometry relative="1" as="geometry">
            <mxPoint x="2299" y="-755.88" as="sourcePoint" />
            <mxPoint x="2299" y="-916.8800000000001" as="targetPoint" />
            <Array as="points" />
          </mxGeometry>
        </mxCell>
        <mxCell id="Kj5KFgZ0lVW4899rqYF9-78" value="&lt;div&gt;CPX&lt;/div&gt;" style="text;html=1;align=center;verticalAlign=middle;resizable=0;points=[];autosize=1;strokeColor=none;fillColor=none;" parent="1" vertex="1">
          <mxGeometry x="2284.5" y="-846.07" width="50" height="30" as="geometry" />
        </mxCell>
        <mxCell id="p1YwJiHcvKK23QlAhqyA-10" value="Logs" style="text;html=1;align=center;verticalAlign=middle;resizable=0;points=[];autosize=1;strokeColor=none;fillColor=none;" parent="1" vertex="1">
          <mxGeometry x="2620" y="-653.5" width="50" height="30" as="geometry" />
        </mxCell>
        <mxCell id="p1YwJiHcvKK23QlAhqyA-12" value="Stream Camera" style="text;html=1;align=center;verticalAlign=middle;resizable=0;points=[];autosize=1;strokeColor=none;fillColor=none;" parent="1" vertex="1">
          <mxGeometry x="2710" y="-1519.9999999999995" width="110" height="30" as="geometry" />
        </mxCell>
        <mxCell id="EYkpaJEB_ktMoDxUqwiC-1" value="" style="rounded=0;whiteSpace=wrap;html=1;fillColor=default;" parent="1" vertex="1">
          <mxGeometry x="3050" y="-1460" width="470" height="370" as="geometry" />
        </mxCell>
        <mxCell id="EYkpaJEB_ktMoDxUqwiC-2" value="&lt;div&gt;Offline learning&lt;/div&gt;" style="text;html=1;align=center;verticalAlign=middle;resizable=0;points=[];autosize=1;strokeColor=none;fillColor=none;fontSize=16;" parent="1" vertex="1">
          <mxGeometry x="3370" y="-1394.88" width="130" height="30" as="geometry" />
        </mxCell>
        <mxCell id="AtxhRvOjIkDFr8ttRG78-25" style="edgeStyle=orthogonalEdgeStyle;rounded=0;orthogonalLoop=1;jettySize=auto;html=1;exitX=0;exitY=0.5;exitDx=0;exitDy=0;entryX=0.5;entryY=0;entryDx=0;entryDy=0;entryPerimeter=0;strokeColor=#000000;align=center;verticalAlign=middle;fontFamily=Helvetica;fontSize=11;fontColor=default;labelBackgroundColor=default;endArrow=classic;flowAnimation=1;opacity=25;strokeWidth=3;arcSize=37;fillColor=#008a00;" parent="1" source="Kj5KFgZ0lVW4899rqYF9-23" target="Kj5KFgZ0lVW4899rqYF9-32" edge="1">
          <mxGeometry relative="1" as="geometry" />
        </mxCell>
        <mxCell id="AtxhRvOjIkDFr8ttRG78-27" style="edgeStyle=orthogonalEdgeStyle;rounded=0;orthogonalLoop=1;jettySize=auto;html=1;exitX=0;exitY=0.5;exitDx=0;exitDy=0;entryX=0.5;entryY=0;entryDx=0;entryDy=0;entryPerimeter=0;strokeColor=#000000;align=center;verticalAlign=middle;fontFamily=Helvetica;fontSize=11;fontColor=default;labelBackgroundColor=default;endArrow=classic;flowAnimation=1;opacity=25;strokeWidth=3;arcSize=37;fillColor=#008a00;" parent="1" source="Kj5KFgZ0lVW4899rqYF9-26" target="Kj5KFgZ0lVW4899rqYF9-30" edge="1">
          <mxGeometry relative="1" as="geometry" />
        </mxCell>
        <mxCell id="oT5ShW1Q7S4KNQri9RwU-5" value="Logs" style="text;html=1;align=center;verticalAlign=middle;resizable=0;points=[];autosize=1;strokeColor=none;fillColor=none;" parent="1" vertex="1">
          <mxGeometry x="2972" y="-1284.0000000000002" width="50" height="30" as="geometry" />
        </mxCell>
        <mxCell id="KCH-vFQE6zLyx8t9fyqf-28" value="Logs" style="text;html=1;align=center;verticalAlign=middle;resizable=0;points=[];autosize=1;strokeColor=none;fillColor=none;" parent="1" vertex="1">
          <mxGeometry x="3541" y="-1432.68" width="50" height="30" as="geometry" />
        </mxCell>
        <mxCell id="IKYmzdzaYqqCpakKSA4x-12" style="edgeStyle=orthogonalEdgeStyle;rounded=0;orthogonalLoop=1;jettySize=auto;html=1;exitX=0.25;exitY=0;exitDx=0;exitDy=0;entryX=0.5;entryY=0;entryDx=0;entryDy=0;strokeColor=#005700;align=center;verticalAlign=middle;fontFamily=Helvetica;fontSize=11;fontColor=default;labelBackgroundColor=default;endArrow=classic;flowAnimation=1;strokeWidth=3;fillColor=#008a00;" parent="1" source="IKYmzdzaYqqCpakKSA4x-2" target="IKYmzdzaYqqCpakKSA4x-6" edge="1">
          <mxGeometry relative="1" as="geometry">
            <mxPoint x="3267" y="-443.88" as="sourcePoint" />
            <mxPoint x="3267" y="-509.8800000000001" as="targetPoint" />
          </mxGeometry>
        </mxCell>
        <mxCell id="IKYmzdzaYqqCpakKSA4x-2" value="" style="shape=image;html=1;verticalAlign=top;verticalLabelPosition=bottom;labelBackgroundColor=#ffffff;imageAspect=0;aspect=fixed;image=https://cdn1.iconfinder.com/data/icons/nuvola2/128x128/devices/joystick.png;fontFamily=Helvetica;fontSize=11;fontColor=default;" parent="1" vertex="1">
          <mxGeometry x="3633.5" y="-1517.19" width="128" height="128" as="geometry" />
        </mxCell>
        <mxCell id="IKYmzdzaYqqCpakKSA4x-5" value="Python client" style="text;html=1;align=center;verticalAlign=middle;resizable=0;points=[];autosize=1;strokeColor=none;fillColor=none;" parent="1" vertex="1">
          <mxGeometry x="3286" y="-1490" width="90" height="30" as="geometry" />
        </mxCell>
        <mxCell id="IKYmzdzaYqqCpakKSA4x-6" value="main.py" style="ellipse;whiteSpace=wrap;html=1;" parent="1" vertex="1">
          <mxGeometry x="3074" y="-1427.64" width="63" height="48.88" as="geometry" />
        </mxCell>
        <mxCell id="IKYmzdzaYqqCpakKSA4x-7" value="&lt;div&gt;Supervised&lt;/div&gt;&lt;div&gt;Learning&lt;br&gt;&lt;/div&gt;" style="text;html=1;align=center;verticalAlign=middle;resizable=0;points=[];autosize=1;strokeColor=none;fillColor=none;" parent="1" vertex="1">
          <mxGeometry x="3543.5" y="-1579" width="80" height="40" as="geometry" />
        </mxCell>
        <mxCell id="IKYmzdzaYqqCpakKSA4x-8" style="edgeStyle=orthogonalEdgeStyle;rounded=0;orthogonalLoop=1;jettySize=auto;html=1;strokeColor=#005700;align=center;verticalAlign=middle;fontFamily=Helvetica;fontSize=11;fontColor=default;labelBackgroundColor=default;endArrow=classic;flowAnimation=1;fillColor=#008a00;strokeWidth=3;exitX=0;exitY=0.5;exitDx=0;exitDy=0;" parent="1" source="IKYmzdzaYqqCpakKSA4x-6" edge="1">
          <mxGeometry relative="1" as="geometry">
            <mxPoint x="2930" y="-949" as="targetPoint" />
            <Array as="points">
              <mxPoint x="2930" y="-1463" />
            </Array>
          </mxGeometry>
        </mxCell>
        <mxCell id="IKYmzdzaYqqCpakKSA4x-9" style="edgeStyle=orthogonalEdgeStyle;rounded=0;orthogonalLoop=1;jettySize=auto;html=1;entryX=0.993;entryY=0.848;entryDx=0;entryDy=0;entryPerimeter=0;strokeColor=#005700;align=center;verticalAlign=middle;fontFamily=Helvetica;fontSize=11;fontColor=default;labelBackgroundColor=default;endArrow=classic;flowAnimation=1;fillColor=#008a00;strokeWidth=3;exitX=0.017;exitY=0.435;exitDx=0;exitDy=0;exitPerimeter=0;" parent="1" source="Kj5KFgZ0lVW4899rqYF9-12" edge="1">
          <mxGeometry relative="1" as="geometry">
            <mxPoint x="2830" y="-880" as="sourcePoint" />
            <mxPoint x="2474.164" y="-745.216" as="targetPoint" />
            <Array as="points">
              <mxPoint x="2791" y="-910" />
              <mxPoint x="2791" y="-745" />
            </Array>
          </mxGeometry>
        </mxCell>
        <mxCell id="IKYmzdzaYqqCpakKSA4x-11" value="Commands" style="text;html=1;align=center;verticalAlign=middle;resizable=0;points=[];autosize=1;strokeColor=none;fillColor=none;" parent="1" vertex="1">
          <mxGeometry x="2895" y="-1493" width="80" height="30" as="geometry" />
        </mxCell>
        <mxCell id="IKYmzdzaYqqCpakKSA4x-15" style="edgeStyle=orthogonalEdgeStyle;rounded=0;orthogonalLoop=1;jettySize=auto;html=1;exitX=1;exitY=0.5;exitDx=0;exitDy=0;strokeColor=#ff0000;align=center;verticalAlign=middle;fontFamily=Helvetica;fontSize=11;fontColor=default;labelBackgroundColor=default;endArrow=classic;flowAnimation=1;strokeWidth=3;dashed=1;dashPattern=1 1;opacity=50;entryX=0.132;entryY=0.994;entryDx=0;entryDy=0;entryPerimeter=0;" parent="1" source="Kj5KFgZ0lVW4899rqYF9-60" target="Kj5KFgZ0lVW4899rqYF9-12" edge="1">
          <mxGeometry relative="1" as="geometry">
            <Array as="points">
              <mxPoint x="2600" y="-732" />
              <mxPoint x="2600" y="-618" />
              <mxPoint x="2931" y="-618" />
            </Array>
            <mxPoint x="2840" y="-880" as="targetPoint" />
          </mxGeometry>
        </mxCell>
        <mxCell id="IKYmzdzaYqqCpakKSA4x-18" value="" style="rounded=0;whiteSpace=wrap;html=1;" parent="1" vertex="1">
          <mxGeometry x="3544.5" y="-1359.19" width="220" height="159.88" as="geometry" />
        </mxCell>
        <mxCell id="IKYmzdzaYqqCpakKSA4x-19" value="Simulator" style="text;html=1;align=center;verticalAlign=middle;resizable=0;points=[];autosize=1;strokeColor=none;fillColor=none;fontSize=16;" parent="1" vertex="1">
          <mxGeometry x="3671.5" y="-1381.9999999999998" width="90" height="30" as="geometry" />
        </mxCell>
        <mxCell id="XlngGC2TMZ_8KCzDN6Xe-4" value="" style="ellipse;shape=cloud;whiteSpace=wrap;html=1;opacity=35;shadow=1;textShadow=1;fillColor=#008a00;fontColor=#ffffff;strokeColor=#005700;rotation=89;" parent="1" vertex="1">
          <mxGeometry x="3650" y="-1287.38" width="78" height="325.5" as="geometry" />
        </mxCell>
        <mxCell id="HE9exWtOW4v-8NvVDKCL-1" value="Commands" style="text;html=1;align=center;verticalAlign=middle;resizable=0;points=[];autosize=1;strokeColor=none;fillColor=none;" parent="1" vertex="1">
          <mxGeometry x="2789" y="-939.07" width="80" height="30" as="geometry" />
        </mxCell>
        <mxCell id="AtHY1P9dt-yXcTE0jRUE-11" value="" style="group" parent="1" vertex="1" connectable="0">
          <mxGeometry x="3575.5" y="-1275.19" width="48" height="48" as="geometry" />
        </mxCell>
        <mxCell id="IKYmzdzaYqqCpakKSA4x-24" value="" style="rounded=1;whiteSpace=wrap;html=1;fillColor=#1ba1e2;fontColor=#ffffff;strokeColor=#006EAF;" parent="AtHY1P9dt-yXcTE0jRUE-11" vertex="1">
          <mxGeometry width="48" height="48" as="geometry" />
        </mxCell>
        <mxCell id="IKYmzdzaYqqCpakKSA4x-25" value="" style="shape=image;html=1;verticalAlign=top;verticalLabelPosition=bottom;labelBackgroundColor=#ffffff;imageAspect=0;aspect=fixed;image=https://cdn1.iconfinder.com/data/icons/vehicle-37/24/Drone-128.png" parent="AtHY1P9dt-yXcTE0jRUE-11" vertex="1">
          <mxGeometry x="8" y="8" width="32" height="32" as="geometry" />
        </mxCell>
        <mxCell id="AtHY1P9dt-yXcTE0jRUE-12" value="" style="group" parent="1" vertex="1" connectable="0">
          <mxGeometry x="3633.5" y="-1341.31" width="48" height="48" as="geometry" />
        </mxCell>
        <mxCell id="AtHY1P9dt-yXcTE0jRUE-13" value="" style="rounded=1;whiteSpace=wrap;html=1;fillColor=#1ba1e2;fontColor=#ffffff;strokeColor=#006EAF;" parent="AtHY1P9dt-yXcTE0jRUE-12" vertex="1">
          <mxGeometry width="48" height="48" as="geometry" />
        </mxCell>
        <mxCell id="AtHY1P9dt-yXcTE0jRUE-14" value="" style="shape=image;html=1;verticalAlign=top;verticalLabelPosition=bottom;labelBackgroundColor=#ffffff;imageAspect=0;aspect=fixed;image=https://cdn1.iconfinder.com/data/icons/vehicle-37/24/Drone-128.png" parent="AtHY1P9dt-yXcTE0jRUE-12" vertex="1">
          <mxGeometry x="8" y="8" width="32" height="32" as="geometry" />
        </mxCell>
        <mxCell id="AtHY1P9dt-yXcTE0jRUE-15" value="" style="group" parent="1" vertex="1" connectable="0">
          <mxGeometry x="3693.5" y="-1271.31" width="48" height="48" as="geometry" />
        </mxCell>
        <mxCell id="AtHY1P9dt-yXcTE0jRUE-16" value="" style="rounded=1;whiteSpace=wrap;html=1;fillColor=#1ba1e2;fontColor=#ffffff;strokeColor=#006EAF;" parent="AtHY1P9dt-yXcTE0jRUE-15" vertex="1">
          <mxGeometry width="48" height="48" as="geometry" />
        </mxCell>
        <mxCell id="AtHY1P9dt-yXcTE0jRUE-17" value="" style="shape=image;html=1;verticalAlign=top;verticalLabelPosition=bottom;labelBackgroundColor=#ffffff;imageAspect=0;aspect=fixed;image=https://cdn1.iconfinder.com/data/icons/vehicle-37/24/Drone-128.png" parent="AtHY1P9dt-yXcTE0jRUE-15" vertex="1">
          <mxGeometry x="8" y="8" width="32" height="32" as="geometry" />
        </mxCell>
        <mxCell id="AtHY1P9dt-yXcTE0jRUE-31" value="" style="group" parent="1" vertex="1" connectable="0">
          <mxGeometry x="2170" y="-850" width="48" height="48" as="geometry" />
        </mxCell>
        <mxCell id="AtHY1P9dt-yXcTE0jRUE-32" value="" style="rounded=1;whiteSpace=wrap;html=1;fillColor=#1ba1e2;fontColor=#ffffff;strokeColor=#006EAF;" parent="AtHY1P9dt-yXcTE0jRUE-31" vertex="1">
          <mxGeometry width="48" height="48" as="geometry" />
        </mxCell>
        <mxCell id="AtHY1P9dt-yXcTE0jRUE-33" value="" style="shape=image;html=1;verticalAlign=top;verticalLabelPosition=bottom;labelBackgroundColor=#ffffff;imageAspect=0;aspect=fixed;image=https://cdn1.iconfinder.com/data/icons/vehicle-37/24/Drone-128.png" parent="AtHY1P9dt-yXcTE0jRUE-31" vertex="1">
          <mxGeometry x="8" y="8" width="32" height="32" as="geometry" />
        </mxCell>
        <mxCell id="AtHY1P9dt-yXcTE0jRUE-37" value="" style="group" parent="1" vertex="1" connectable="0">
          <mxGeometry x="2170" y="-1470" width="48" height="48" as="geometry" />
        </mxCell>
        <mxCell id="AtHY1P9dt-yXcTE0jRUE-38" value="" style="rounded=1;whiteSpace=wrap;html=1;fillColor=#1ba1e2;fontColor=#ffffff;strokeColor=#006EAF;" parent="AtHY1P9dt-yXcTE0jRUE-37" vertex="1">
          <mxGeometry width="48" height="48" as="geometry" />
        </mxCell>
        <mxCell id="AtHY1P9dt-yXcTE0jRUE-39" value="" style="shape=image;html=1;verticalAlign=top;verticalLabelPosition=bottom;labelBackgroundColor=#ffffff;imageAspect=0;aspect=fixed;image=https://cdn1.iconfinder.com/data/icons/vehicle-37/24/Drone-128.png" parent="AtHY1P9dt-yXcTE0jRUE-37" vertex="1">
          <mxGeometry x="8" y="8" width="32" height="32" as="geometry" />
        </mxCell>
        <mxCell id="N_LgnpdCW4-ehAA4GWKG-1" value="" style="group" parent="1" vertex="1" connectable="0">
          <mxGeometry x="3550" y="-780" width="128" height="70.40000000000003" as="geometry" />
        </mxCell>
        <mxCell id="N_LgnpdCW4-ehAA4GWKG-2" value="" style="rounded=1;whiteSpace=wrap;html=1;fillColor=#1ba1e2;fontColor=#ffffff;strokeColor=#006EAF;aspect=fixed;" parent="N_LgnpdCW4-ehAA4GWKG-1" vertex="1">
          <mxGeometry width="128" height="70.4" as="geometry" />
        </mxCell>
        <mxCell id="N_LgnpdCW4-ehAA4GWKG-3" value="" style="fontColor=#0066CC;verticalAlign=top;verticalLabelPosition=bottom;labelPosition=center;align=center;html=1;outlineConnect=0;fillColor=#CCCCCC;strokeColor=#6881B3;gradientColor=none;gradientDirection=north;strokeWidth=2;shape=mxgraph.networks.laptop;" parent="N_LgnpdCW4-ehAA4GWKG-1" vertex="1">
          <mxGeometry x="14" y="7.700000000000102" width="100" height="55" as="geometry" />
        </mxCell>
        <mxCell id="iORVegFAxj6raPo97rE1-3" value="" style="rounded=0;whiteSpace=wrap;html=1;fillColor=#B2B2BA;strokeColor=none;" parent="1" vertex="1">
          <mxGeometry x="3090" y="-1364.88" width="410" height="254.88" as="geometry" />
        </mxCell>
        <mxCell id="AtxhRvOjIkDFr8ttRG78-6" value="train.ipynb" style="ellipse;whiteSpace=wrap;html=1;" parent="1" vertex="1">
          <mxGeometry x="3210" y="-1352" width="70" height="44.12" as="geometry" />
        </mxCell>
        <mxCell id="iORVegFAxj6raPo97rE1-69" style="edgeStyle=orthogonalEdgeStyle;rounded=0;orthogonalLoop=1;jettySize=auto;html=1;entryX=0;entryY=0.5;entryDx=0;entryDy=0;strokeColor=default;align=center;verticalAlign=middle;fontFamily=Helvetica;fontSize=11;fontColor=default;labelBackgroundColor=default;endArrow=classic;flowAnimation=1;strokeWidth=3;" parent="1" source="AtxhRvOjIkDFr8ttRG78-7" target="AtxhRvOjIkDFr8ttRG78-6" edge="1">
          <mxGeometry relative="1" as="geometry">
            <Array as="points">
              <mxPoint x="3159" y="-1330" />
            </Array>
          </mxGeometry>
        </mxCell>
        <mxCell id="pyCa_9TfyAoFtWK_yMNQ-6" style="edgeStyle=orthogonalEdgeStyle;rounded=0;orthogonalLoop=1;jettySize=auto;html=1;exitX=0.5;exitY=1;exitDx=0;exitDy=0;exitPerimeter=0;entryX=0;entryY=0.5;entryDx=0;entryDy=0;strokeColor=default;strokeWidth=3;align=center;verticalAlign=middle;fontFamily=Helvetica;fontSize=11;fontColor=default;labelBackgroundColor=default;endArrow=classic;flowAnimation=1;" edge="1" parent="1" source="AtxhRvOjIkDFr8ttRG78-7" target="AtHY1P9dt-yXcTE0jRUE-1">
          <mxGeometry relative="1" as="geometry" />
        </mxCell>
        <mxCell id="AtxhRvOjIkDFr8ttRG78-7" value="Data" style="shape=cylinder3;whiteSpace=wrap;html=1;boundedLbl=1;backgroundOutline=1;size=15;" parent="1" vertex="1">
          <mxGeometry x="3130" y="-1275.1899999999998" width="57" height="84" as="geometry" />
        </mxCell>
        <mxCell id="AtxhRvOjIkDFr8ttRG78-8" value="model.onnx" style="ellipse;whiteSpace=wrap;html=1;" parent="1" vertex="1">
          <mxGeometry x="3394" y="-1199.3100000000002" width="82" height="46" as="geometry" />
        </mxCell>
        <mxCell id="AtHY1P9dt-yXcTE0jRUE-1" value="analysis.ipynb" style="ellipse;whiteSpace=wrap;html=1;" parent="1" vertex="1">
          <mxGeometry x="3199.5" y="-1170.5300000000002" width="91" height="51.06" as="geometry" />
        </mxCell>
        <mxCell id="AtHY1P9dt-yXcTE0jRUE-2" value="&lt;div&gt;Results&lt;/div&gt;" style="shape=cylinder3;whiteSpace=wrap;html=1;boundedLbl=1;backgroundOutline=1;size=15;" parent="1" vertex="1">
          <mxGeometry x="3313" y="-1275.19" width="57" height="80" as="geometry" />
        </mxCell>
        <mxCell id="AtxhRvOjIkDFr8ttRG78-17" style="edgeStyle=orthogonalEdgeStyle;rounded=0;orthogonalLoop=1;jettySize=auto;html=1;exitX=1;exitY=0.5;exitDx=0;exitDy=0;entryX=0.5;entryY=0;entryDx=0;entryDy=0;strokeColor=default;align=center;verticalAlign=middle;fontFamily=Helvetica;fontSize=11;fontColor=default;labelBackgroundColor=default;endArrow=classic;flowAnimation=1;strokeWidth=3;" parent="1" source="AtxhRvOjIkDFr8ttRG78-6" target="AtxhRvOjIkDFr8ttRG78-8" edge="1">
          <mxGeometry relative="1" as="geometry" />
        </mxCell>
        <mxCell id="AtxhRvOjIkDFr8ttRG78-18" style="edgeStyle=orthogonalEdgeStyle;rounded=0;orthogonalLoop=1;jettySize=auto;html=1;exitX=1;exitY=0.5;exitDx=0;exitDy=0;strokeColor=default;align=center;verticalAlign=middle;fontFamily=Helvetica;fontSize=11;fontColor=default;labelBackgroundColor=default;endArrow=classic;flowAnimation=1;strokeWidth=3;" parent="1" source="AtxhRvOjIkDFr8ttRG78-8" target="Kj5KFgZ0lVW4899rqYF9-34" edge="1">
          <mxGeometry relative="1" as="geometry" />
        </mxCell>
        <mxCell id="oT5ShW1Q7S4KNQri9RwU-1" value="&lt;div&gt;&lt;br&gt;&lt;/div&gt;" style="edgeStyle=orthogonalEdgeStyle;rounded=0;orthogonalLoop=1;jettySize=auto;html=1;strokeColor=#ff0000;strokeWidth=3;dashed=1;dashPattern=1 1;opacity=50;fillColor=#1ba1e2;flowAnimation=1;entryX=0;entryY=1;entryDx=0;entryDy=0;align=center;verticalAlign=middle;fontFamily=Helvetica;fontSize=11;fontColor=default;labelBackgroundColor=default;endArrow=classic;exitX=0.497;exitY=-0.002;exitDx=0;exitDy=0;exitPerimeter=0;" parent="1" source="Kj5KFgZ0lVW4899rqYF9-12" target="IKYmzdzaYqqCpakKSA4x-6" edge="1">
          <mxGeometry relative="1" as="geometry">
            <mxPoint x="2860" y="-951" as="sourcePoint" />
            <mxPoint x="3109" y="-1213.0300000000002" as="targetPoint" />
            <Array as="points">
              <mxPoint x="2960" y="-1250" />
              <mxPoint x="3083" y="-1250" />
            </Array>
          </mxGeometry>
        </mxCell>
        <mxCell id="KCH-vFQE6zLyx8t9fyqf-26" style="edgeStyle=orthogonalEdgeStyle;rounded=0;orthogonalLoop=1;jettySize=auto;html=1;entryX=1;entryY=0.5;entryDx=0;entryDy=0;strokeColor=#ff0000;align=center;verticalAlign=middle;fontFamily=Helvetica;fontSize=11;fontColor=default;labelBackgroundColor=default;endArrow=classic;flowAnimation=1;fillColor=#f8cecc;strokeWidth=3;dashed=1;dashPattern=1 1;opacity=50;" parent="1" target="IKYmzdzaYqqCpakKSA4x-6" edge="1">
          <mxGeometry relative="1" as="geometry">
            <mxPoint x="3590" y="-1359" as="sourcePoint" />
            <Array as="points">
              <mxPoint x="3590" y="-1359" />
              <mxPoint x="3590" y="-1463" />
            </Array>
          </mxGeometry>
        </mxCell>
        <mxCell id="iORVegFAxj6raPo97rE1-60" style="edgeStyle=orthogonalEdgeStyle;rounded=0;orthogonalLoop=1;jettySize=auto;html=1;entryX=0.279;entryY=-0.004;entryDx=0;entryDy=0;entryPerimeter=0;strokeColor=#ff0000;align=center;verticalAlign=middle;fontFamily=Helvetica;fontSize=11;fontColor=default;labelBackgroundColor=default;endArrow=classic;flowAnimation=1;dashed=1;dashPattern=1 1;opacity=50;strokeWidth=3;fillColor=#f8cecc;" parent="1" source="Kj5KFgZ0lVW4899rqYF9-13" target="IKYmzdzaYqqCpakKSA4x-6" edge="1">
          <mxGeometry relative="1" as="geometry">
            <Array as="points">
              <mxPoint x="3000" y="-1499" />
              <mxPoint x="3092" y="-1499" />
            </Array>
          </mxGeometry>
        </mxCell>
        <mxCell id="iORVegFAxj6raPo97rE1-61" style="edgeStyle=orthogonalEdgeStyle;rounded=0;orthogonalLoop=1;jettySize=auto;html=1;exitX=1;exitY=0.5;exitDx=0;exitDy=0;entryX=-0.016;entryY=0.18;entryDx=0;entryDy=0;entryPerimeter=0;strokeColor=#ff0000;align=center;verticalAlign=middle;fontFamily=Helvetica;fontSize=11;fontColor=default;labelBackgroundColor=default;endArrow=classic;flowAnimation=1;dashed=1;dashPattern=1 1;opacity=50;strokeWidth=3;" parent="1" source="Kj5KFgZ0lVW4899rqYF9-8" target="Kj5KFgZ0lVW4899rqYF9-13" edge="1">
          <mxGeometry relative="1" as="geometry" />
        </mxCell>
        <mxCell id="iORVegFAxj6raPo97rE1-63" style="edgeStyle=orthogonalEdgeStyle;rounded=0;orthogonalLoop=1;jettySize=auto;html=1;strokeColor=#ff0000;align=center;verticalAlign=middle;fontFamily=Helvetica;fontSize=11;fontColor=default;labelBackgroundColor=default;endArrow=classic;flowAnimation=1;dashed=1;dashPattern=1 1;opacity=50;strokeWidth=3;entryX=0.01;entryY=0.237;entryDx=0;entryDy=0;entryPerimeter=0;" parent="1" source="Kj5KFgZ0lVW4899rqYF9-64" target="Kj5KFgZ0lVW4899rqYF9-13" edge="1">
          <mxGeometry relative="1" as="geometry">
            <Array as="points">
              <mxPoint x="2720" y="-942" />
              <mxPoint x="2720" y="-1420" />
            </Array>
            <mxPoint x="2880" y="-1420" as="targetPoint" />
          </mxGeometry>
        </mxCell>
        <mxCell id="iORVegFAxj6raPo97rE1-66" style="edgeStyle=orthogonalEdgeStyle;rounded=0;orthogonalLoop=1;jettySize=auto;html=1;entryX=0;entryY=0.5;entryDx=0;entryDy=0;entryPerimeter=0;strokeColor=#ff0000;align=center;verticalAlign=middle;fontFamily=Helvetica;fontSize=11;fontColor=default;labelBackgroundColor=default;endArrow=classic;flowAnimation=1;dashed=1;dashPattern=1 1;opacity=50;strokeWidth=3;fillColor=#f8cecc;" parent="1" source="IKYmzdzaYqqCpakKSA4x-6" target="AtxhRvOjIkDFr8ttRG78-7" edge="1">
          <mxGeometry relative="1" as="geometry" />
        </mxCell>
        <mxCell id="IKYmzdzaYqqCpakKSA4x-17" style="edgeStyle=orthogonalEdgeStyle;rounded=0;orthogonalLoop=1;jettySize=auto;html=1;exitX=1;exitY=1;exitDx=0;exitDy=0;strokeColor=#ff0000;align=center;verticalAlign=middle;fontFamily=Helvetica;fontSize=11;fontColor=default;labelBackgroundColor=default;endArrow=classic;flowAnimation=1;strokeWidth=3;opacity=50;dashed=1;dashPattern=1 1;entryX=0.131;entryY=0.994;entryDx=0;entryDy=0;entryPerimeter=0;" parent="1" source="Kj5KFgZ0lVW4899rqYF9-4" target="Kj5KFgZ0lVW4899rqYF9-12" edge="1">
          <mxGeometry relative="1" as="geometry">
            <mxPoint x="2870" y="-800" as="targetPoint" />
            <Array as="points">
              <mxPoint x="2621" y="-1324" />
              <mxPoint x="2621" y="-618" />
              <mxPoint x="2930" y="-618" />
              <mxPoint x="2930" y="-800" />
            </Array>
          </mxGeometry>
        </mxCell>
        <mxCell id="Kj5KFgZ0lVW4899rqYF9-20" value="&lt;div&gt;stm32.bin&lt;/div&gt;" style="ellipse;whiteSpace=wrap;html=1;" parent="1" vertex="1">
          <mxGeometry x="3047" y="-811.0700000000002" width="63" height="31" as="geometry" />
        </mxCell>
        <mxCell id="pyCa_9TfyAoFtWK_yMNQ-5" style="edgeStyle=orthogonalEdgeStyle;rounded=0;orthogonalLoop=1;jettySize=auto;html=1;exitX=0.5;exitY=1;exitDx=0;exitDy=0;exitPerimeter=0;entryX=0.5;entryY=0;entryDx=0;entryDy=0;strokeColor=default;strokeWidth=3;align=center;verticalAlign=middle;fontFamily=Helvetica;fontSize=11;fontColor=default;labelBackgroundColor=default;endArrow=classic;flowAnimation=1;" edge="1" parent="1" source="Iznl7x10-VODPa0N9Z1I-6" target="AtHY1P9dt-yXcTE0jRUE-1">
          <mxGeometry relative="1" as="geometry" />
        </mxCell>
        <mxCell id="Iznl7x10-VODPa0N9Z1I-6" value="&lt;div&gt;Metrics&lt;/div&gt;" style="shape=cylinder3;whiteSpace=wrap;html=1;boundedLbl=1;backgroundOutline=1;size=15;" parent="1" vertex="1">
          <mxGeometry x="3216.5" y="-1275.1900000000005" width="57" height="84" as="geometry" />
        </mxCell>
        <mxCell id="Iznl7x10-VODPa0N9Z1I-7" style="edgeStyle=orthogonalEdgeStyle;rounded=0;orthogonalLoop=1;jettySize=auto;html=1;exitX=0.5;exitY=1;exitDx=0;exitDy=0;entryX=0.5;entryY=0;entryDx=0;entryDy=0;entryPerimeter=0;strokeColor=default;align=center;verticalAlign=middle;fontFamily=Helvetica;fontSize=11;fontColor=default;labelBackgroundColor=default;endArrow=classic;flowAnimation=1;strokeWidth=3;" parent="1" source="AtxhRvOjIkDFr8ttRG78-6" target="Iznl7x10-VODPa0N9Z1I-6" edge="1">
          <mxGeometry relative="1" as="geometry" />
        </mxCell>
        <mxCell id="pyCa_9TfyAoFtWK_yMNQ-7" style="edgeStyle=orthogonalEdgeStyle;rounded=0;orthogonalLoop=1;jettySize=auto;html=1;entryX=0.5;entryY=1;entryDx=0;entryDy=0;entryPerimeter=0;strokeColor=default;strokeWidth=3;align=center;verticalAlign=middle;fontFamily=Helvetica;fontSize=11;fontColor=default;labelBackgroundColor=default;endArrow=classic;flowAnimation=1;" edge="1" parent="1" source="AtHY1P9dt-yXcTE0jRUE-1" target="AtHY1P9dt-yXcTE0jRUE-2">
          <mxGeometry relative="1" as="geometry" />
        </mxCell>
      </root>
    </mxGraphModel>
  </diagram>
  <diagram id="IClPwDsbdd2oTUolAAq5" name="Research Layer">
    <mxGraphModel dx="1834" dy="1145" grid="1" gridSize="10" guides="1" tooltips="1" connect="1" arrows="1" fold="1" page="0" pageScale="1" pageWidth="850" pageHeight="1100" math="0" shadow="0">
      <root>
        <mxCell id="0" />
        <mxCell id="1" parent="0" />
        <mxCell id="BvUsk2P4A67WcpJFAGDw-3" value="" style="rounded=1;whiteSpace=wrap;html=1;fillColor=#b0e3e6;strokeColor=#0e8088;" parent="1" vertex="1">
          <mxGeometry x="180" y="-220" width="490" height="240" as="geometry" />
        </mxCell>
        <mxCell id="8TzF05IMCw3amNNvQEdC-1" value="" style="rounded=1;whiteSpace=wrap;html=1;fillColor=#b0e3e6;strokeColor=#0e8088;" parent="1" vertex="1">
          <mxGeometry x="237.5" y="80" width="375" height="390" as="geometry" />
        </mxCell>
        <mxCell id="RyXJAOycTilbPtWUm33V-22" style="edgeStyle=orthogonalEdgeStyle;rounded=0;orthogonalLoop=1;jettySize=auto;html=1;exitX=1;exitY=0.5;exitDx=0;exitDy=0;entryX=0;entryY=0.5;entryDx=0;entryDy=0;fillColor=#fa6800;strokeColor=#C73500;strokeWidth=3;flowAnimation=1;dashed=1;dashPattern=1 1;opacity=50;align=center;verticalAlign=middle;fontFamily=Helvetica;fontSize=11;fontColor=default;labelBackgroundColor=default;endArrow=classic;" parent="1" source="RyXJAOycTilbPtWUm33V-1" target="RyXJAOycTilbPtWUm33V-21" edge="1">
          <mxGeometry relative="1" as="geometry" />
        </mxCell>
        <mxCell id="RyXJAOycTilbPtWUm33V-1" value="FeedForward&lt;br&gt;Neural Network" style="rounded=0;whiteSpace=wrap;html=1;" parent="1" vertex="1">
          <mxGeometry x="390" y="-88" width="120" height="60" as="geometry" />
        </mxCell>
        <mxCell id="RyXJAOycTilbPtWUm33V-19" style="edgeStyle=orthogonalEdgeStyle;rounded=0;orthogonalLoop=1;jettySize=auto;html=1;exitX=1;exitY=0.5;exitDx=0;exitDy=0;entryX=0;entryY=0.5;entryDx=0;entryDy=0;fillColor=#fa6800;strokeColor=#C73500;strokeWidth=3;flowAnimation=1;dashed=1;dashPattern=1 1;opacity=50;align=center;verticalAlign=middle;fontFamily=Helvetica;fontSize=11;fontColor=default;labelBackgroundColor=default;endArrow=classic;" parent="1" source="RyXJAOycTilbPtWUm33V-3" target="RyXJAOycTilbPtWUm33V-1" edge="1">
          <mxGeometry relative="1" as="geometry" />
        </mxCell>
        <mxCell id="RyXJAOycTilbPtWUm33V-3" value="&lt;div&gt;State&lt;/div&gt;" style="ellipse;whiteSpace=wrap;html=1;" parent="1" vertex="1">
          <mxGeometry x="230" y="-103" width="110" height="90" as="geometry" />
        </mxCell>
        <mxCell id="RyXJAOycTilbPtWUm33V-14" style="edgeStyle=orthogonalEdgeStyle;rounded=0;orthogonalLoop=1;jettySize=auto;html=1;entryX=0.5;entryY=0;entryDx=0;entryDy=0;fillColor=#d80073;gradientColor=#7ea6e0;strokeColor=#A50040;strokeWidth=4;flowAnimation=1;exitX=0.5;exitY=0;exitDx=0;exitDy=0;shadow=0;dashed=1;dashPattern=1 1;opacity=25;align=center;verticalAlign=middle;fontFamily=Helvetica;fontSize=11;fontColor=default;labelBackgroundColor=default;endArrow=classic;" parent="1" source="_hx6_GJGES43o-Bzlk7O-4" target="RyXJAOycTilbPtWUm33V-3" edge="1">
          <mxGeometry relative="1" as="geometry">
            <mxPoint x="-270" y="-60" as="sourcePoint" />
            <Array as="points">
              <mxPoint x="-35" y="-130" />
              <mxPoint x="285" y="-130" />
            </Array>
          </mxGeometry>
        </mxCell>
        <mxCell id="RyXJAOycTilbPtWUm33V-13" style="edgeStyle=orthogonalEdgeStyle;rounded=0;orthogonalLoop=1;jettySize=auto;html=1;exitX=0;exitY=0.5;exitDx=0;exitDy=0;strokeWidth=4;flowAnimation=1;fillColor=#d80073;gradientColor=#7ea6e0;strokeColor=#A50040;entryX=1;entryY=0.5;entryDx=0;entryDy=0;shadow=0;dashed=1;dashPattern=1 1;opacity=25;align=center;verticalAlign=middle;fontFamily=Helvetica;fontSize=11;fontColor=default;labelBackgroundColor=default;endArrow=classic;" parent="1" source="RyXJAOycTilbPtWUm33V-3" target="_hx6_GJGES43o-Bzlk7O-4" edge="1">
          <mxGeometry relative="1" as="geometry">
            <mxPoint x="-20" y="95" as="targetPoint" />
            <Array as="points">
              <mxPoint x="90" y="-58" />
              <mxPoint x="90" y="49" />
            </Array>
          </mxGeometry>
        </mxCell>
        <mxCell id="RyXJAOycTilbPtWUm33V-16" value="Broadcast" style="text;html=1;align=center;verticalAlign=middle;resizable=0;points=[];autosize=1;strokeColor=none;fillColor=none;" parent="1" vertex="1">
          <mxGeometry x="90" y="-88" width="80" height="30" as="geometry" />
        </mxCell>
        <mxCell id="RyXJAOycTilbPtWUm33V-17" value="Receive&lt;br&gt;&lt;div&gt;Data&lt;/div&gt;" style="text;html=1;align=center;verticalAlign=middle;resizable=0;points=[];autosize=1;strokeColor=none;fillColor=none;" parent="1" vertex="1">
          <mxGeometry x="95" y="-165" width="70" height="40" as="geometry" />
        </mxCell>
        <mxCell id="RyXJAOycTilbPtWUm33V-40" style="edgeStyle=orthogonalEdgeStyle;rounded=0;orthogonalLoop=1;jettySize=auto;html=1;entryX=0.5;entryY=1;entryDx=0;entryDy=0;strokeWidth=3;fillColor=#ffcd28;gradientColor=#ffa500;strokeColor=default;flowAnimation=1;exitX=0;exitY=0;exitDx=70;exitDy=80;exitPerimeter=0;align=center;verticalAlign=middle;fontFamily=Helvetica;fontSize=11;fontColor=default;labelBackgroundColor=default;endArrow=classic;" parent="1" source="RyXJAOycTilbPtWUm33V-18" target="RyXJAOycTilbPtWUm33V-30" edge="1">
          <mxGeometry relative="1" as="geometry">
            <Array as="points">
              <mxPoint x="342.5" y="210" />
              <mxPoint x="342.5" y="350" />
              <mxPoint x="522.5" y="350" />
            </Array>
            <mxPoint x="192.5" y="680" as="sourcePoint" />
          </mxGeometry>
        </mxCell>
        <mxCell id="RyXJAOycTilbPtWUm33V-18" value="HISTORY" style="shape=cube;whiteSpace=wrap;html=1;boundedLbl=1;backgroundOutline=1;darkOpacity=0.05;darkOpacity2=0.1;" parent="1" vertex="1">
          <mxGeometry x="294.5" y="130" width="120" height="80" as="geometry" />
        </mxCell>
        <mxCell id="RyXJAOycTilbPtWUm33V-23" style="edgeStyle=orthogonalEdgeStyle;rounded=0;orthogonalLoop=1;jettySize=auto;html=1;exitX=0.5;exitY=0;exitDx=0;exitDy=0;entryX=1;entryY=0;entryDx=0;entryDy=0;strokeWidth=3;fillColor=#fa6800;strokeColor=#C73500;flowAnimation=1;gradientColor=#7ea6e0;align=center;verticalAlign=middle;fontFamily=Helvetica;fontSize=11;fontColor=default;labelBackgroundColor=default;endArrow=classic;dashed=1;dashPattern=1 1;opacity=50;" parent="1" source="RyXJAOycTilbPtWUm33V-21" target="RyXJAOycTilbPtWUm33V-3" edge="1">
          <mxGeometry relative="1" as="geometry">
            <Array as="points">
              <mxPoint x="600" y="-130" />
              <mxPoint x="324" y="-130" />
            </Array>
          </mxGeometry>
        </mxCell>
        <mxCell id="RyXJAOycTilbPtWUm33V-21" value="&lt;div&gt;Commands&lt;/div&gt;" style="ellipse;whiteSpace=wrap;html=1;" parent="1" vertex="1">
          <mxGeometry x="545" y="-103" width="110" height="90" as="geometry" />
        </mxCell>
        <mxCell id="RyXJAOycTilbPtWUm33V-24" value="Update" style="text;html=1;align=center;verticalAlign=middle;resizable=0;points=[];autosize=1;strokeColor=none;fillColor=none;" parent="1" vertex="1">
          <mxGeometry x="440" y="-165" width="60" height="30" as="geometry" />
        </mxCell>
        <mxCell id="RyXJAOycTilbPtWUm33V-28" style="edgeStyle=orthogonalEdgeStyle;rounded=0;orthogonalLoop=1;jettySize=auto;html=1;exitX=0.388;exitY=0.971;exitDx=0;exitDy=0;fillColor=#ffcd28;strokeColor=#ff0000;gradientColor=#ffa500;strokeWidth=3;flowAnimation=1;entryX=0;entryY=0;entryDx=49.99999999999999;entryDy=0;entryPerimeter=0;exitPerimeter=0;dashed=1;dashPattern=1 1;opacity=50;align=center;verticalAlign=middle;fontFamily=Helvetica;fontSize=11;fontColor=default;labelBackgroundColor=default;endArrow=classic;" parent="1" source="RyXJAOycTilbPtWUm33V-3" target="RyXJAOycTilbPtWUm33V-18" edge="1">
          <mxGeometry relative="1" as="geometry">
            <mxPoint x="290" y="320" as="targetPoint" />
          </mxGeometry>
        </mxCell>
        <mxCell id="RyXJAOycTilbPtWUm33V-36" style="edgeStyle=orthogonalEdgeStyle;rounded=0;orthogonalLoop=1;jettySize=auto;html=1;exitX=0.5;exitY=0;exitDx=0;exitDy=0;entryX=0.5;entryY=1;entryDx=0;entryDy=0;strokeWidth=3;flowAnimation=1;fillColor=#d5e8d4;gradientColor=#97d077;strokeColor=default;align=center;verticalAlign=middle;fontFamily=Helvetica;fontSize=11;fontColor=default;labelBackgroundColor=default;endArrow=classic;" parent="1" source="RyXJAOycTilbPtWUm33V-30" target="RyXJAOycTilbPtWUm33V-34" edge="1">
          <mxGeometry relative="1" as="geometry" />
        </mxCell>
        <mxCell id="RyXJAOycTilbPtWUm33V-30" value="Performance&lt;br&gt;Metrics" style="whiteSpace=wrap;html=1;aspect=fixed;" parent="1" vertex="1">
          <mxGeometry x="482.5" y="230" width="80" height="80" as="geometry" />
        </mxCell>
        <mxCell id="RyXJAOycTilbPtWUm33V-35" style="edgeStyle=orthogonalEdgeStyle;rounded=0;orthogonalLoop=1;jettySize=auto;html=1;exitX=0.5;exitY=0;exitDx=0;exitDy=0;entryX=0.5;entryY=1;entryDx=0;entryDy=0;strokeWidth=3;flowAnimation=1;fillColor=#008a00;gradientColor=#97d077;strokeColor=#000000;opacity=25;align=center;verticalAlign=middle;arcSize=37;fontFamily=Helvetica;fontSize=11;fontColor=default;labelBackgroundColor=default;endArrow=classic;" parent="1" source="RyXJAOycTilbPtWUm33V-34" target="RyXJAOycTilbPtWUm33V-1" edge="1">
          <mxGeometry relative="1" as="geometry">
            <Array as="points">
              <mxPoint x="523" y="70" />
              <mxPoint x="450" y="70" />
            </Array>
          </mxGeometry>
        </mxCell>
        <mxCell id="RyXJAOycTilbPtWUm33V-34" value="Training Strategy" style="whiteSpace=wrap;html=1;aspect=fixed;" parent="1" vertex="1">
          <mxGeometry x="482.5" y="100" width="80" height="80" as="geometry" />
        </mxCell>
        <mxCell id="RyXJAOycTilbPtWUm33V-37" value="Update&lt;br&gt;Weights" style="text;html=1;align=center;verticalAlign=middle;resizable=0;points=[];autosize=1;strokeColor=none;fillColor=none;" parent="1" vertex="1">
          <mxGeometry x="450" y="28.5" width="70" height="40" as="geometry" />
        </mxCell>
        <mxCell id="dWdi6AVXVnSt6qq-XaVg-2" value="" style="group" parent="1" vertex="1" connectable="0">
          <mxGeometry x="354.5" y="380" width="128" height="70.40000000000003" as="geometry" />
        </mxCell>
        <mxCell id="lLB6aV5KpV9XMp5cZ180-1" value="" style="rounded=1;whiteSpace=wrap;html=1;fillColor=#1ba1e2;fontColor=#ffffff;strokeColor=#006EAF;aspect=fixed;" parent="dWdi6AVXVnSt6qq-XaVg-2" vertex="1">
          <mxGeometry width="128" height="70.4" as="geometry" />
        </mxCell>
        <mxCell id="BvUsk2P4A67WcpJFAGDw-1" value="" style="fontColor=#0066CC;verticalAlign=top;verticalLabelPosition=bottom;labelPosition=center;align=center;html=1;outlineConnect=0;fillColor=#CCCCCC;strokeColor=#6881B3;gradientColor=none;gradientDirection=north;strokeWidth=2;shape=mxgraph.networks.laptop;" parent="dWdi6AVXVnSt6qq-XaVg-2" vertex="1">
          <mxGeometry x="14" y="7.700000000000102" width="100" height="55" as="geometry" />
        </mxCell>
        <mxCell id="-yTctlndPd6BSD2Zqk5n-5" value="" style="group" parent="1" vertex="1" connectable="0">
          <mxGeometry x="200" y="-200" width="48" height="48" as="geometry" />
        </mxCell>
        <mxCell id="F9VciCkbqvp731zZW4Mg-1" value="" style="rounded=1;whiteSpace=wrap;html=1;fillColor=#1ba1e2;fontColor=#ffffff;strokeColor=#006EAF;" parent="-yTctlndPd6BSD2Zqk5n-5" vertex="1">
          <mxGeometry width="48" height="48" as="geometry" />
        </mxCell>
        <mxCell id="F9VciCkbqvp731zZW4Mg-2" value="" style="shape=image;html=1;verticalAlign=top;verticalLabelPosition=bottom;labelBackgroundColor=#ffffff;imageAspect=0;aspect=fixed;image=https://cdn1.iconfinder.com/data/icons/vehicle-37/24/Drone-128.png" parent="-yTctlndPd6BSD2Zqk5n-5" vertex="1">
          <mxGeometry x="8" y="8" width="32" height="32" as="geometry" />
        </mxCell>
        <mxCell id="-yTctlndPd6BSD2Zqk5n-10" value="" style="group" parent="1" vertex="1" connectable="0">
          <mxGeometry x="-130" y="-40" width="189" height="177" as="geometry" />
        </mxCell>
        <mxCell id="_hx6_GJGES43o-Bzlk7O-4" value="" style="rounded=1;whiteSpace=wrap;html=1;fillColor=#1ba1e2;fontColor=#ffffff;strokeColor=#006EAF;" parent="-yTctlndPd6BSD2Zqk5n-10" vertex="1">
          <mxGeometry width="189" height="177" as="geometry" />
        </mxCell>
        <mxCell id="RyXJAOycTilbPtWUm33V-12" value="" style="shape=image;html=1;verticalAlign=top;verticalLabelPosition=bottom;labelBackgroundColor=#ffffff;imageAspect=0;aspect=fixed;image=https://cdn1.iconfinder.com/data/icons/vehicle-37/24/Drone-128.png" parent="-yTctlndPd6BSD2Zqk5n-10" vertex="1">
          <mxGeometry x="70.5" y="14" width="48" height="48" as="geometry" />
        </mxCell>
        <mxCell id="_hx6_GJGES43o-Bzlk7O-1" value="" style="shape=image;html=1;verticalAlign=top;verticalLabelPosition=bottom;labelBackgroundColor=#ffffff;imageAspect=0;aspect=fixed;image=https://cdn1.iconfinder.com/data/icons/vehicle-37/24/Drone-128.png" parent="-yTctlndPd6BSD2Zqk5n-10" vertex="1">
          <mxGeometry x="130" y="59" width="48" height="48" as="geometry" />
        </mxCell>
        <mxCell id="_hx6_GJGES43o-Bzlk7O-2" value="" style="shape=image;html=1;verticalAlign=top;verticalLabelPosition=bottom;labelBackgroundColor=#ffffff;imageAspect=0;aspect=fixed;image=https://cdn1.iconfinder.com/data/icons/vehicle-37/24/Drone-128.png" parent="-yTctlndPd6BSD2Zqk5n-10" vertex="1">
          <mxGeometry x="70.5" y="115" width="48" height="48" as="geometry" />
        </mxCell>
        <mxCell id="-yTctlndPd6BSD2Zqk5n-9" value="" style="shape=image;html=1;verticalAlign=top;verticalLabelPosition=bottom;labelBackgroundColor=#ffffff;imageAspect=0;aspect=fixed;image=https://cdn1.iconfinder.com/data/icons/vehicle-37/24/Drone-128.png" parent="-yTctlndPd6BSD2Zqk5n-10" vertex="1">
          <mxGeometry x="12" y="64.5" width="48" height="48" as="geometry" />
        </mxCell>
      </root>
    </mxGraphModel>
  </diagram>
</mxfile>
